<svg xmlns="http://www.w3.org/2000/svg" width="186" height="111">
  <style>text { font: 10px -apple-system, BlinkMacSystemFont, 'Segoe UI', sans-serif; fill: #57606a; }</style>
  <text x="54" y="12">Mar</text>
  <text x="119" y="12">Apr</text>
  <text x="171" y="12">May</text>
  <text x="0" y="29" text-anchor="start">Mon</text>
  <text x="0" y="42" text-anchor="start">Tue</text>
  <text x="0" y="55" text-anchor="start">Wed</text>
  <text x="0" y="68" text-anchor="start">Thu</text>
  <text x="0" y="81" text-anchor="start">Fri</text>
  <text x="0" y="94" text-anchor="start">Sat</text>
  <text x="0" y="107" text-anchor="start">Sun</text>
  <rect x="28" y="18" width="11" height="11" rx="2" ry="2" fill="#ebedf0"><title>February 09, 2026</title></rect>
  <rect x="28" y="31" width="11" height="11" rx="2" ry="2" fill="#ebedf0"><title>February 10, 2026</title></rect>
  <rect x="28" y="44" width="11" height="11" rx="2" ry="2" fill="#ebedf0"><title>February 11, 2026</title></rect>
  <rect x="28" y="57" width="11" height="11" rx="2" ry="2" fill="#ebedf0"><title>February 12, 2026</title></rect>
  <rect x="28" y="70" width="11" height="11" rx="2" ry="2" fill="#ebedf0"><title>February 13, 2026</title></rect>
  <rect x="28" y="83" width="11" height="11" rx="2" ry="2" fill="#ebedf0"><title>February 14, 2026</title></rect>
  <rect x="28" y="96" width="11" height="11" rx="2" ry="2" fill="#ebedf0"><title>February 15, 2026</title></rect>
  <rect x="41" y="18" width="11" height="11" rx="2" ry="2" fill="#ebedf0"><title>February 16, 2026</title></rect>
  <rect x="41" y="31" width="11" height="11" rx="2" ry="2" fill="#ebedf0"><title>February 17, 2026</title></rect>
  <rect x="41" y="44" width="11" height="11" rx="2" ry="2" fill="#ebedf0"><title>February 18, 2026</title></rect>
  <rect x="41" y="57" width="11" height="11" rx="2" ry="2" fill="#ebedf0"><title>February 19, 2026</title></rect>
  <rect x="41" y="70" width="11" height="11" rx="2" ry="2" fill="#ebedf0"><title>February 20, 2026</title></rect>
  <rect x="41" y="83" width="11" height="11" rx="2" ry="2" fill="#ebedf0"><title>February 21, 2026</title></rect>
  <rect x="41" y="96" width="11" height="11" rx="2" ry="2" fill="#ebedf0"><title>February 22, 2026</title></rect>
  <rect x="54" y="18" width="11" height="11" rx="2" ry="2" fill="#ebedf0"><title>February 23, 2026</title></rect>
  <rect x="54" y="31" width="11" height="11" rx="2" ry="2" fill="#ebedf0"><title>February 24, 2026</title></rect>
  <rect x="54" y="44" width="11" height="11" rx="2" ry="2" fill="#ebedf0"><title>February 25, 2026</title></rect>
  <rect x="54" y="57" width="11" height="11" rx="2" ry="2" fill="#ebedf0"><title>February 26, 2026</title></rect>
  <rect x="54" y="70" width="11" height="11" rx="2" ry="2" fill="#ebedf0"><title>February 27, 2026</title></rect>
  <rect x="54" y="83" width="11" height="11" rx="2" ry="2" fill="#ebedf0"><title>February 28, 2026</title></rect>
  <rect x="54" y="96" width="11" height="11" rx="2" ry="2" fill="#ebedf0"><title>March 01, 2026</title></rect>
  <rect x="67" y="18" width="11" height="11" rx="2" ry="2" fill="#ebedf0"><title>March 02, 2026</title></rect>
  <rect x="67" y="31" width="11" height="11" rx="2" ry="2" fill="#ebedf0"><title>March 03, 2026</title></rect>
  <rect x="67" y="44" width="11" height="11" rx="2" ry="2" fill="#ebedf0"><title>March 04, 2026</title></rect>
  <rect x="67" y="57" width="11" height="11" rx="2" ry="2" fill="#ebedf0"><title>March 05, 2026</title></rect>
  <rect x="67" y="70" width="11" height="11" rx="2" ry="2" fill="#ebedf0"><title>March 06, 2026</title></rect>
  <rect x="67" y="83" width="11" height="11" rx="2" ry="2" fill="#ebedf0"><title>March 07, 2026</title></rect>
  <rect x="67" y="96" width="11" height="11" rx="2" ry="2" fill="#ebedf0"><title>March 08, 2026</title></rect>
  <rect x="80" y="18" width="11" height="11" rx="2" ry="2" fill="#ebedf0"><title>March 09, 2026</title></rect>
  <rect x="80" y="31" width="11" height="11" rx="2" ry="2" fill="#ebedf0"><title>March 10, 2026</title></rect>
  <rect x="80" y="44" width="11" height="11" rx="2" ry="2" fill="#ebedf0"><title>March 11, 2026</title></rect>
  <rect x="80" y="57" width="11" height="11" rx="2" ry="2" fill="#ebedf0"><title>March 12, 2026</title></rect>
  <rect x="80" y="70" width="11" height="11" rx="2" ry="2" fill="#ebedf0"><title>March 13, 2026</title></rect>
  <rect x="80" y="83" width="11" height="11" rx="2" ry="2" fill="#ebedf0"><title>March 14, 2026</title></rect>
  <rect x="80" y="96" width="11" height="11" rx="2" ry="2" fill="#ebedf0"><title>March 15, 2026</title></rect>
  <rect x="93" y="18" width="11" height="11" rx="2" ry="2" fill="#ebedf0"><title>March 16, 2026</title></rect>
  <rect x="93" y="31" width="11" height="11" rx="2" ry="2" fill="#ebedf0"><title>March 17, 2026</title></rect>
  <rect x="93" y="44" width="11" height="11" rx="2" ry="2" fill="#ebedf0"><title>March 18, 2026</title></rect>
  <rect x="93" y="57" width="11" height="11" rx="2" ry="2" fill="#ebedf0"><title>March 19, 2026</title></rect>
  <rect x="93" y="70" width="11" height="11" rx="2" ry="2" fill="#ebedf0"><title>March 20, 2026</title></rect>
  <rect x="93" y="83" width="11" height="11" rx="2" ry="2" fill="#ebedf0"><title>March 21, 2026</title></rect>
  <rect x="93" y="96" width="11" height="11" rx="2" ry="2" fill="#ebedf0"><title>March 22, 2026</title></rect>
  <rect x="106" y="18" width="11" height="11" rx="2" ry="2" fill="#ebedf0"><title>March 23, 2026</title></rect>
  <rect x="106" y="31" width="11" height="11" rx="2" ry="2" fill="#ebedf0"><title>March 24, 2026</title></rect>
  <rect x="106" y="44" width="11" height="11" rx="2" ry="2" fill="#ebedf0"><title>March 25, 2026</title></rect>
  <rect x="106" y="57" width="11" height="11" rx="2" ry="2" fill="#ebedf0"><title>March 26, 2026</title></rect>
  <rect x="106" y="70" width="11" height="11" rx="2" ry="2" fill="#ebedf0"><title>March 27, 2026</title></rect>
  <rect x="106" y="83" width="11" height="11" rx="2" ry="2" fill="#ebedf0"><title>March 28, 2026</title></rect>
  <rect x="106" y="96" width="11" height="11" rx="2" ry="2" fill="#ebedf0"><title>March 29, 2026</title></rect>
  <rect x="119" y="18" width="11" height="11" rx="2" ry="2" fill="#ebedf0"><title>March 30, 2026</title></rect>
  <rect x="119" y="31" width="11" height="11" rx="2" ry="2" fill="#ebedf0"><title>March 31, 2026</title></rect>
  <rect x="119" y="44" width="11" height="11" rx="2" ry="2" fill="#ebedf0"><title>April 01, 2026</title></rect>
  <rect x="119" y="57" width="11" height="11" rx="2" ry="2" fill="#ebedf0"><title>April 02, 2026</title></rect>
  <rect x="119" y="70" width="11" height="11" rx="2" ry="2" fill="#ebedf0"><title>April 03, 2026</title></rect>
  <rect x="119" y="83" width="11" height="11" rx="2" ry="2" fill="#ebedf0"><title>April 04, 2026</title></rect>
  <rect x="119" y="96" width="11" height="11" rx="2" ry="2" fill="#ebedf0"><title>April 05, 2026</title></rect>
  <rect x="132" y="18" width="11" height="11" rx="2" ry="2" fill="#ebedf0"><title>April 06, 2026</title></rect>
  <rect x="132" y="31" width="11" height="11" rx="2" ry="2" fill="#ebedf0"><title>April 07, 2026</title></rect>
  <rect x="132" y="44" width="11" height="11" rx="2" ry="2" fill="#ebedf0"><title>April 08, 2026</title></rect>
  <rect x="132" y="57" width="11" height="11" rx="2" ry="2" fill="#ebedf0"><title>April 09, 2026</title></rect>
  <rect x="132" y="70" width="11" height="11" rx="2" ry="2" fill="#ebedf0"><title>April 10, 2026</title></rect>
  <rect x="132" y="83" width="11" height="11" rx="2" ry="2" fill="#ebedf0"><title>April 11, 2026</title></rect>
  <rect x="132" y="96" width="11" height="11" rx="2" ry="2" fill="#ebedf0"><title>April 12, 2026</title></rect>
  <rect x="145" y="18" width="11" height="11" rx="2" ry="2" fill="#ebedf0"><title>April 13, 2026</title></rect>
  <rect x="145" y="31" width="11" height="11" rx="2" ry="2" fill="#ebedf0"><title>April 14, 2026</title></rect>
  <rect x="145" y="44" width="11" height="11" rx="2" ry="2" fill="#ebedf0"><title>April 15, 2026</title></rect>
  <rect x="145" y="57" width="11" height="11" rx="2" ry="2" fill="#ebedf0"><title>April 16, 2026</title></rect>
  <rect x="145" y="70" width="11" height="11" rx="2" ry="2" fill="#ebedf0"><title>April 17, 2026</title></rect>
  <rect x="145" y="83" width="11" height="11" rx="2" ry="2" fill="#ebedf0"><title>April 18, 2026</title></rect>
  <rect x="145" y="96" width="11" height="11" rx="2" ry="2" fill="#ebedf0"><title>April 19, 2026</title></rect>
  <rect x="158" y="18" width="11" height="11" rx="2" ry="2" fill="#ebedf0"><title>April 20, 2026</title></rect>
  <rect x="158" y="31" width="11" height="11" rx="2" ry="2" fill="#ebedf0"><title>April 21, 2026</title></rect>
  <rect x="158" y="44" width="11" height="11" rx="2" ry="2" fill="#ebedf0"><title>April 22, 2026</title></rect>
  <rect x="158" y="57" width="11" height="11" rx="2" ry="2" fill="#ebedf0"><title>April 23, 2026</title></rect>
  <rect x="158" y="70" width="11" height="11" rx="2" ry="2" fill="#ebedf0"><title>April 24, 2026</title></rect>
  <rect x="158" y="83" width="11" height="11" rx="2" ry="2" fill="#ebedf0"><title>April 25, 2026</title></rect>
  <rect x="158" y="96" width="11" height="11" rx="2" ry="2" fill="#ebedf0"><title>April 26, 2026</title></rect>
  <rect x="171" y="18" width="11" height="11" rx="2" ry="2" fill="#ebedf0"><title>April 27, 2026</title></rect>
  <rect x="171" y="31" width="11" height="11" rx="2" ry="2" fill="#ebedf0"><title>April 28, 2026</title></rect>
  <rect x="171" y="44" width="11" height="11" rx="2" ry="2" fill="#ebedf0"><title>April 29, 2026</title></rect>
  <rect x="171" y="57" width="11" height="11" rx="2" ry="2" fill="#ebedf0"><title>April 30, 2026</title></rect>
  <rect x="171" y="70" width="11" height="11" rx="2" ry="2" fill="#26a641"><title>May 01, 2026</title></rect>
  <rect x="171" y="83" width="11" height="11" rx="2" ry="2" fill="#ebedf0"><title>May 02, 2026</title></rect>
</svg>